<svg width="60" height="60" viewBox="0 0 60 60" fill="none" xmlns="http://www.w3.org/2000/svg">
  <!-- ARS Logo Design -->
  <circle cx="30" cy="30" r="28" fill="#1e3a8a" stroke="#3b82f6" stroke-width="2"/>
  
  <!-- A -->
  <path d="M15 45 L20 30 L25 30 L30 45 M18 38 L22 38" stroke="white" stroke-width="2.5" fill="none" stroke-linecap="round" stroke-linejoin="round"/>
  
  <!-- R -->
  <path d="M32 30 L32 45 M32 30 L37 30 L39 32 L39 35 L37 37 L32 37 M37 37 L39 45" stroke="white" stroke-width="2.5" fill="none" stroke-linecap="round" stroke-linejoin="round"/>
  
  <!-- S -->
  <path d="M42 35 L40 33 L40 30 L44 30 L44 33 L42 35 L42 37 L40 37 L40 40 L44 40 L44 37 L42 35" stroke="white" stroke-width="2.5" fill="none" stroke-linecap="round" stroke-linejoin="round"/>
  
  <!-- Decorative elements -->
  <circle cx="30" cy="15" r="2" fill="#3b82f6"/>
  <circle cx="25" cy="18" r="1.5" fill="#60a5fa"/>
  <circle cx="35" cy="18" r="1.5" fill="#60a5fa"/>
</svg>
